<svg width="33" height="33" viewBox="0 0 33 33" fill="none" xmlns="http://www.w3.org/2000/svg">
<rect width="33" height="33" rx="10" fill="#312E81"/>
<path d="M11.3889 25.4444C10.3722 25.4444 9.3972 25.0406 8.67831 24.3217C7.95942 23.6028 7.55556 22.6278 7.55556 21.6111V11.3889C7.55556 10.3722 7.95942 9.3972 8.67831 8.67831C9.3972 7.95942 10.3722 7.55556 11.3889 7.55556C11.7278 7.55556 12.0528 7.42093 12.2924 7.1813C12.532 6.94167 12.6667 6.61667 12.6667 6.27778C12.6667 5.93889 12.532 5.61388 12.2924 5.37425C12.0528 5.13462 11.7278 5 11.3889 5C9.69445 5 8.06941 5.67311 6.87126 6.87126C5.67311 8.06941 5 9.69445 5 11.3889V21.6111C5 23.3055 5.67311 24.9306 6.87126 26.1287C8.06941 27.3269 9.69445 28 11.3889 28C11.7278 28 12.0528 27.8654 12.2924 27.6257C12.532 27.3861 12.6667 27.0611 12.6667 26.7222C12.6667 26.3833 12.532 26.0583 12.2924 25.8187C12.0528 25.5791 11.7278 25.4444 11.3889 25.4444ZM21.2406 21.2406C21.3603 21.1218 21.4554 20.9804 21.5202 20.8247C21.5851 20.669 21.6185 20.502 21.6185 20.3333C21.6185 20.1647 21.5851 19.9976 21.5202 19.8419C21.4554 19.6862 21.3603 19.5449 21.2406 19.4261L18.3017 16.5L21.2406 13.5739C21.4812 13.3333 21.6163 13.0069 21.6163 12.6667C21.6163 12.3264 21.4812 12.0001 21.2406 11.7594C20.9999 11.5188 20.6736 11.3837 20.3333 11.3837C19.9931 11.3837 19.6667 11.5188 19.4261 11.7594L16.5 14.6983L13.5739 11.7594C13.3333 11.5188 13.0069 11.3837 12.6667 11.3837C12.3264 11.3837 12.0001 11.5188 11.7594 11.7594C11.5188 12.0001 11.3837 12.3264 11.3837 12.6667C11.3837 13.0069 11.5188 13.3333 11.7594 13.5739L14.6983 16.5L11.7594 19.4261C11.6397 19.5449 11.5446 19.6862 11.4798 19.8419C11.4149 19.9976 11.3815 20.1647 11.3815 20.3333C11.3815 20.502 11.4149 20.669 11.4798 20.8247C11.5446 20.9804 11.6397 21.1218 11.7594 21.2406C11.8782 21.3603 12.0196 21.4554 12.1753 21.5202C12.331 21.5851 12.498 21.6185 12.6667 21.6185C12.8353 21.6185 13.0024 21.5851 13.1581 21.5202C13.3138 21.4554 13.4551 21.3603 13.5739 21.2406L16.5 18.3017L19.4261 21.2406C19.5449 21.3603 19.6862 21.4554 19.8419 21.5202C19.9976 21.5851 20.1647 21.6185 20.3333 21.6185C20.502 21.6185 20.669 21.5851 20.8247 21.5202C20.9804 21.4554 21.1218 21.3603 21.2406 21.2406ZM21.6111 5C21.2722 5 20.9472 5.13462 20.7076 5.37425C20.468 5.61388 20.3333 5.93889 20.3333 6.27778C20.3333 6.61667 20.468 6.94167 20.7076 7.1813C20.9472 7.42093 21.2722 7.55556 21.6111 7.55556C22.6278 7.55556 23.6028 7.95942 24.3217 8.67831C25.0406 9.3972 25.4444 10.3722 25.4444 11.3889V21.6111C25.4444 22.6278 25.0406 23.6028 24.3217 24.3217C23.6028 25.0406 22.6278 25.4444 21.6111 25.4444C21.2722 25.4444 20.9472 25.5791 20.7076 25.8187C20.468 26.0583 20.3333 26.3833 20.3333 26.7222C20.3333 27.0611 20.468 27.3861 20.7076 27.6257C20.9472 27.8654 21.2722 28 21.6111 28C23.3055 28 24.9306 27.3269 26.1287 26.1287C27.3269 24.9306 28 23.3055 28 21.6111V11.3889C28 9.69445 27.3269 8.06941 26.1287 6.87126C24.9306 5.67311 23.3055 5 21.6111 5Z" fill="white"/>
</svg>
