<svg width="147" height="40" viewBox="0 0 147 40" fill="none" xmlns="http://www.w3.org/2000/svg">
<rect x="114" y="3" width="33" height="33" rx="10" fill="#312E81"/>
<path d="M125.389 28.4444C124.372 28.4444 123.397 28.0406 122.678 27.3217C121.959 26.6028 121.556 25.6278 121.556 24.6111V14.3889C121.556 13.3722 121.959 12.3972 122.678 11.6783C123.397 10.9594 124.372 10.5556 125.389 10.5556C125.728 10.5556 126.053 10.4209 126.292 10.1813C126.532 9.94167 126.667 9.61667 126.667 9.27778C126.667 8.93889 126.532 8.61388 126.292 8.37425C126.053 8.13462 125.728 8 125.389 8C123.694 8 122.069 8.67311 120.871 9.87126C119.673 11.0694 119 12.6944 119 14.3889V24.6111C119 26.3055 119.673 27.9306 120.871 29.1287C122.069 30.3269 123.694 31 125.389 31C125.728 31 126.053 30.8654 126.292 30.6257C126.532 30.3861 126.667 30.0611 126.667 29.7222C126.667 29.3833 126.532 29.0583 126.292 28.8187C126.053 28.5791 125.728 28.4444 125.389 28.4444ZM135.241 24.2406C135.36 24.1218 135.455 23.9804 135.52 23.8247C135.585 23.669 135.619 23.502 135.619 23.3333C135.619 23.1647 135.585 22.9976 135.52 22.8419C135.455 22.6862 135.36 22.5449 135.241 22.4261L132.302 19.5L135.241 16.5739C135.481 16.3333 135.616 16.0069 135.616 15.6667C135.616 15.3264 135.481 15.0001 135.241 14.7594C135 14.5188 134.674 14.3837 134.333 14.3837C133.993 14.3837 133.667 14.5188 133.426 14.7594L130.5 17.6983L127.574 14.7594C127.333 14.5188 127.007 14.3837 126.667 14.3837C126.326 14.3837 126 14.5188 125.759 14.7594C125.519 15.0001 125.384 15.3264 125.384 15.6667C125.384 16.0069 125.519 16.3333 125.759 16.5739L128.698 19.5L125.759 22.4261C125.64 22.5449 125.545 22.6862 125.48 22.8419C125.415 22.9976 125.381 23.1647 125.381 23.3333C125.381 23.502 125.415 23.669 125.48 23.8247C125.545 23.9804 125.64 24.1218 125.759 24.2406C125.878 24.3603 126.02 24.4554 126.175 24.5202C126.331 24.5851 126.498 24.6185 126.667 24.6185C126.835 24.6185 127.002 24.5851 127.158 24.5202C127.314 24.4554 127.455 24.3603 127.574 24.2406L130.5 21.3017L133.426 24.2406C133.545 24.3603 133.686 24.4554 133.842 24.5202C133.998 24.5851 134.165 24.6185 134.333 24.6185C134.502 24.6185 134.669 24.5851 134.825 24.5202C134.98 24.4554 135.122 24.3603 135.241 24.2406ZM135.611 8C135.272 8 134.947 8.13462 134.708 8.37425C134.468 8.61388 134.333 8.93889 134.333 9.27778C134.333 9.61667 134.468 9.94167 134.708 10.1813C134.947 10.4209 135.272 10.5556 135.611 10.5556C136.628 10.5556 137.603 10.9594 138.322 11.6783C139.041 12.3972 139.444 13.3722 139.444 14.3889V24.6111C139.444 25.6278 139.041 26.6028 138.322 27.3217C137.603 28.0406 136.628 28.4444 135.611 28.4444C135.272 28.4444 134.947 28.5791 134.708 28.8187C134.468 29.0583 134.333 29.3833 134.333 29.7222C134.333 30.0611 134.468 30.3861 134.708 30.6257C134.947 30.8654 135.272 31 135.611 31C137.306 31 138.931 30.3269 140.129 29.1287C141.327 27.9306 142 26.3055 142 24.6111V14.3889C142 12.6944 141.327 11.0694 140.129 9.87126C138.931 8.67311 137.306 8 135.611 8Z" fill="white"/>
<path d="M22.2344 29.0156C21.151 30.099 19.8594 30.9479 18.3594 31.5625C16.8698 32.1667 15.2448 32.4688 13.4844 32.4688C11.724 32.4688 10.099 32.1667 8.60938 31.5625C7.11979 30.9583 5.82292 30.1094 4.71875 29.0156C3.625 27.9115 2.77083 26.6198 2.15625 25.1406C1.55208 23.651 1.25 22.0312 1.25 20.2812C1.25 18.5208 1.55208 16.901 2.15625 15.4219C2.77083 13.9323 3.625 12.6406 4.71875 11.5469C5.82292 10.4531 7.11979 9.60417 8.60938 9C10.099 8.39583 11.724 8.09375 13.4844 8.09375C15.2344 8.09375 16.8542 8.40104 18.3438 9.01562C19.8438 9.61979 21.1302 10.4583 22.2031 11.5312L19.8125 13.9688C19.0312 13.0833 18.0938 12.3906 17 11.8906C15.9167 11.3802 14.7292 11.125 13.4375 11.125C12.1875 11.125 11.0365 11.3542 9.98438 11.8125C8.93229 12.2604 8.01562 12.901 7.23438 13.7344C6.45312 14.5573 5.84375 15.526 5.40625 16.6406C4.97917 17.7552 4.76562 18.9688 4.76562 20.2812C4.76562 21.5938 4.97917 22.8073 5.40625 23.9219C5.84375 25.0365 6.45312 26.0104 7.23438 26.8438C8.01562 27.6667 8.93229 28.3073 9.98438 28.7656C11.0365 29.2135 12.1875 29.4375 13.4375 29.4375C14.7292 29.4375 15.9167 29.1875 17 28.6875C18.0938 28.1771 19.026 27.4792 19.7969 26.5938L22.2344 29.0156ZM32.7812 32.3125C31.2188 32.3125 29.8125 31.9583 28.5625 31.25C27.3125 30.5417 26.3281 29.5781 25.6094 28.3594C24.8906 27.1302 24.5312 25.7396 24.5312 24.1875C24.5312 22.6458 24.8906 21.2656 25.6094 20.0469C26.3281 18.8177 27.3125 17.849 28.5625 17.1406C29.8125 16.4219 31.2188 16.0625 32.7812 16.0625C34.3542 16.0625 35.7604 16.4219 37 17.1406C38.2396 17.849 39.2135 18.8177 39.9219 20.0469C40.6406 21.2656 41 22.6458 41 24.1875C41 25.7396 40.6406 27.1302 39.9219 28.3594C39.2135 29.5781 38.2396 30.5417 37 31.25C35.7604 31.9583 34.3542 32.3125 32.7812 32.3125ZM32.7656 29.4375C33.7135 29.4375 34.5573 29.2083 35.2969 28.75C36.0469 28.2812 36.6354 27.6562 37.0625 26.875C37.5 26.0833 37.7188 25.1823 37.7188 24.1719C37.7188 23.1823 37.5 22.2969 37.0625 21.5156C36.6354 20.724 36.0469 20.099 35.2969 19.6406C34.5573 19.1719 33.7135 18.9375 32.7656 18.9375C31.8281 18.9375 30.9844 19.1719 30.2344 19.6406C29.4844 20.099 28.8906 20.724 28.4531 21.5156C28.026 22.2969 27.8125 23.1823 27.8125 24.1719C27.8125 25.1823 28.026 26.0833 28.4531 26.875C28.8906 27.6562 29.4844 28.2812 30.2344 28.75C30.9844 29.2083 31.8281 29.4375 32.7656 29.4375ZM59.875 32H57.0469L56.875 29.7656C56.1667 30.5573 55.3125 31.1823 54.3125 31.6406C53.3229 32.0885 52.2344 32.3125 51.0469 32.3125C49.5469 32.3125 48.2031 31.9583 47.0156 31.25C45.8281 30.5417 44.8906 29.5729 44.2031 28.3438C43.526 27.1146 43.1875 25.7292 43.1875 24.1875C43.1875 22.6354 43.526 21.25 44.2031 20.0312C44.8906 18.8021 45.8281 17.8333 47.0156 17.125C48.2031 16.4167 49.5469 16.0625 51.0469 16.0625C52.1719 16.0625 53.2135 16.2656 54.1719 16.6719C55.1406 17.0781 55.974 17.6458 56.6719 18.375V8.5625H59.875V32ZM51.5781 29.4375C52.526 29.4375 53.3802 29.2188 54.1406 28.7812C54.9115 28.3438 55.526 27.75 55.9844 27C56.4427 26.25 56.6719 25.3958 56.6719 24.4375V23.9062C56.6719 22.9479 56.4427 22.0938 55.9844 21.3438C55.526 20.5938 54.9115 20.0052 54.1406 19.5781C53.3802 19.151 52.526 18.9375 51.5781 18.9375C50.6094 18.9375 49.7396 19.1667 48.9688 19.625C48.1979 20.0833 47.5885 20.7083 47.1406 21.5C46.6927 22.2812 46.4688 23.1719 46.4688 24.1719C46.4688 25.1719 46.6927 26.0677 47.1406 26.8594C47.5885 27.651 48.1979 28.2812 48.9688 28.75C49.7396 29.2083 50.6094 29.4375 51.5781 29.4375ZM78.3125 30.1406C76.375 31.5885 74.2448 32.3125 71.9219 32.3125C70.2656 32.3125 68.7812 31.9479 67.4688 31.2188C66.1562 30.4896 65.1198 29.4948 64.3594 28.2344C63.599 26.974 63.2188 25.5521 63.2188 23.9688C63.2188 22.4583 63.5677 21.1094 64.2656 19.9219C64.9635 18.724 65.9167 17.7812 67.125 17.0938C68.3333 16.4062 69.7031 16.0625 71.2344 16.0625C72.8177 16.0625 74.2083 16.4375 75.4062 17.1875C76.6146 17.9375 77.5521 18.9844 78.2188 20.3281C78.8958 21.6615 79.2344 23.2083 79.2344 24.9688V25.4688H66.6875C66.875 26.2812 67.2292 26.9948 67.75 27.6094C68.2708 28.2135 68.9167 28.6875 69.6875 29.0312C70.4583 29.3646 71.3281 29.5312 72.2969 29.5312C74.026 29.5312 75.6146 28.9688 77.0625 27.8438L78.3125 30.1406ZM66.5469 23.25H76.25C76.1458 22.375 75.875 21.6146 75.4375 20.9688C75 20.3125 74.4323 19.8021 73.7344 19.4375C73.0469 19.0625 72.2708 18.875 71.4062 18.875C70.5312 18.875 69.7448 19.0625 69.0469 19.4375C68.349 19.8021 67.7812 20.3125 67.3438 20.9688C66.9167 21.625 66.651 22.3854 66.5469 23.25ZM85.7969 32H82.5938V16.375H85.3906L85.5156 19.3438C86.0573 18.3125 86.8021 17.5104 87.75 16.9375C88.7083 16.3542 89.8073 16.0625 91.0469 16.0625C91.349 16.0625 91.651 16.0833 91.9531 16.125C92.2656 16.1562 92.5781 16.2083 92.8906 16.2812L92.4844 19.1719C91.8802 19.0156 91.2865 18.9375 90.7031 18.9375C89.7344 18.9375 88.8802 19.1719 88.1406 19.6406C87.401 20.099 86.8229 20.7344 86.4062 21.5469C86 22.3594 85.7969 23.2969 85.7969 24.3594V32ZM107.844 25.3906H95.3438V22.9062H107.844V25.3906Z" fill="white"/>
</svg>
