<svg width="152" height="40" viewBox="0 0 152 40" fill="none" xmlns="http://www.w3.org/2000/svg">
<rect x="114" y="1" width="38" height="38" rx="10" fill="#4338CA"/>
<path d="M127.222 30.1111C126.073 30.1111 124.971 29.6546 124.158 28.8419C123.345 28.0293 122.889 26.927 122.889 25.7778V14.2222C122.889 13.073 123.345 11.9708 124.158 11.1581C124.971 10.3454 126.073 9.88889 127.222 9.88889C127.605 9.88889 127.973 9.73671 128.244 9.46582C128.514 9.19493 128.667 8.82753 128.667 8.44444C128.667 8.06135 128.514 7.69395 128.244 7.42307C127.973 7.15218 127.605 7 127.222 7C125.307 7 123.47 7.76091 122.115 9.11534C120.761 10.4698 120 12.3068 120 14.2222V25.7778C120 27.6932 120.761 29.5302 122.115 30.8847C123.47 32.2391 125.307 33 127.222 33C127.605 33 127.973 32.8478 128.244 32.5769C128.514 32.306 128.667 31.9386 128.667 31.5556C128.667 31.1725 128.514 30.8051 128.244 30.5342C127.973 30.2633 127.605 30.1111 127.222 30.1111ZM138.359 25.3589C138.494 25.2246 138.602 25.0649 138.675 24.8888C138.748 24.7128 138.786 24.524 138.786 24.3333C138.786 24.1427 138.748 23.9539 138.675 23.7778C138.602 23.6018 138.494 23.4421 138.359 23.3078L135.037 20L138.359 16.6922C138.631 16.4202 138.784 16.0513 138.784 15.6667C138.784 15.282 138.631 14.9131 138.359 14.6411C138.087 14.3691 137.718 14.2163 137.333 14.2163C136.949 14.2163 136.58 14.3691 136.308 14.6411L133 17.9633L129.692 14.6411C129.42 14.3691 129.051 14.2163 128.667 14.2163C128.282 14.2163 127.913 14.3691 127.641 14.6411C127.369 14.9131 127.216 15.282 127.216 15.6667C127.216 16.0513 127.369 16.4202 127.641 16.6922L130.963 20L127.641 23.3078C127.506 23.4421 127.398 23.6018 127.325 23.7778C127.252 23.9539 127.214 24.1427 127.214 24.3333C127.214 24.524 127.252 24.7128 127.325 24.8888C127.398 25.0649 127.506 25.2246 127.641 25.3589C127.775 25.4943 127.935 25.6017 128.111 25.6751C128.287 25.7484 128.476 25.7862 128.667 25.7862C128.857 25.7862 129.046 25.7484 129.222 25.6751C129.398 25.6017 129.558 25.4943 129.692 25.3589L133 22.0367L136.308 25.3589C136.442 25.4943 136.602 25.6017 136.778 25.6751C136.954 25.7484 137.143 25.7862 137.333 25.7862C137.524 25.7862 137.713 25.7484 137.889 25.6751C138.065 25.6017 138.225 25.4943 138.359 25.3589ZM138.778 7C138.395 7 138.027 7.15218 137.756 7.42307C137.486 7.69395 137.333 8.06135 137.333 8.44444C137.333 8.82753 137.486 9.19493 137.756 9.46582C138.027 9.73671 138.395 9.88889 138.778 9.88889C139.927 9.88889 141.029 10.3454 141.842 11.1581C142.655 11.9708 143.111 13.073 143.111 14.2222V25.7778C143.111 26.927 142.655 28.0293 141.842 28.8419C141.029 29.6546 139.927 30.1111 138.778 30.1111C138.395 30.1111 138.027 30.2633 137.756 30.5342C137.486 30.8051 137.333 31.1725 137.333 31.5556C137.333 31.9386 137.486 32.306 137.756 32.5769C138.027 32.8478 138.395 33 138.778 33C140.693 33 142.53 32.2391 143.885 30.8847C145.239 29.5302 146 27.6932 146 25.7778V14.2222C146 12.3068 145.239 10.4698 143.885 9.11534C142.53 7.76091 140.693 7 138.778 7Z" fill="white"/>
<path d="M22.2344 29.0156C21.151 30.099 19.8594 30.9479 18.3594 31.5625C16.8698 32.1667 15.2448 32.4688 13.4844 32.4688C11.724 32.4688 10.099 32.1667 8.60938 31.5625C7.11979 30.9583 5.82292 30.1094 4.71875 29.0156C3.625 27.9115 2.77083 26.6198 2.15625 25.1406C1.55208 23.651 1.25 22.0312 1.25 20.2812C1.25 18.5208 1.55208 16.901 2.15625 15.4219C2.77083 13.9323 3.625 12.6406 4.71875 11.5469C5.82292 10.4531 7.11979 9.60417 8.60938 9C10.099 8.39583 11.724 8.09375 13.4844 8.09375C15.2344 8.09375 16.8542 8.40104 18.3438 9.01562C19.8438 9.61979 21.1302 10.4583 22.2031 11.5312L19.8125 13.9688C19.0312 13.0833 18.0938 12.3906 17 11.8906C15.9167 11.3802 14.7292 11.125 13.4375 11.125C12.1875 11.125 11.0365 11.3542 9.98438 11.8125C8.93229 12.2604 8.01562 12.901 7.23438 13.7344C6.45312 14.5573 5.84375 15.526 5.40625 16.6406C4.97917 17.7552 4.76562 18.9688 4.76562 20.2812C4.76562 21.5938 4.97917 22.8073 5.40625 23.9219C5.84375 25.0365 6.45312 26.0104 7.23438 26.8438C8.01562 27.6667 8.93229 28.3073 9.98438 28.7656C11.0365 29.2135 12.1875 29.4375 13.4375 29.4375C14.7292 29.4375 15.9167 29.1875 17 28.6875C18.0938 28.1771 19.026 27.4792 19.7969 26.5938L22.2344 29.0156ZM32.7812 32.3125C31.2188 32.3125 29.8125 31.9583 28.5625 31.25C27.3125 30.5417 26.3281 29.5781 25.6094 28.3594C24.8906 27.1302 24.5312 25.7396 24.5312 24.1875C24.5312 22.6458 24.8906 21.2656 25.6094 20.0469C26.3281 18.8177 27.3125 17.849 28.5625 17.1406C29.8125 16.4219 31.2188 16.0625 32.7812 16.0625C34.3542 16.0625 35.7604 16.4219 37 17.1406C38.2396 17.849 39.2135 18.8177 39.9219 20.0469C40.6406 21.2656 41 22.6458 41 24.1875C41 25.7396 40.6406 27.1302 39.9219 28.3594C39.2135 29.5781 38.2396 30.5417 37 31.25C35.7604 31.9583 34.3542 32.3125 32.7812 32.3125ZM32.7656 29.4375C33.7135 29.4375 34.5573 29.2083 35.2969 28.75C36.0469 28.2812 36.6354 27.6562 37.0625 26.875C37.5 26.0833 37.7188 25.1823 37.7188 24.1719C37.7188 23.1823 37.5 22.2969 37.0625 21.5156C36.6354 20.724 36.0469 20.099 35.2969 19.6406C34.5573 19.1719 33.7135 18.9375 32.7656 18.9375C31.8281 18.9375 30.9844 19.1719 30.2344 19.6406C29.4844 20.099 28.8906 20.724 28.4531 21.5156C28.026 22.2969 27.8125 23.1823 27.8125 24.1719C27.8125 25.1823 28.026 26.0833 28.4531 26.875C28.8906 27.6562 29.4844 28.2812 30.2344 28.75C30.9844 29.2083 31.8281 29.4375 32.7656 29.4375ZM59.875 32H57.0469L56.875 29.7656C56.1667 30.5573 55.3125 31.1823 54.3125 31.6406C53.3229 32.0885 52.2344 32.3125 51.0469 32.3125C49.5469 32.3125 48.2031 31.9583 47.0156 31.25C45.8281 30.5417 44.8906 29.5729 44.2031 28.3438C43.526 27.1146 43.1875 25.7292 43.1875 24.1875C43.1875 22.6354 43.526 21.25 44.2031 20.0312C44.8906 18.8021 45.8281 17.8333 47.0156 17.125C48.2031 16.4167 49.5469 16.0625 51.0469 16.0625C52.1719 16.0625 53.2135 16.2656 54.1719 16.6719C55.1406 17.0781 55.974 17.6458 56.6719 18.375V8.5625H59.875V32ZM51.5781 29.4375C52.526 29.4375 53.3802 29.2188 54.1406 28.7812C54.9115 28.3438 55.526 27.75 55.9844 27C56.4427 26.25 56.6719 25.3958 56.6719 24.4375V23.9062C56.6719 22.9479 56.4427 22.0938 55.9844 21.3438C55.526 20.5938 54.9115 20.0052 54.1406 19.5781C53.3802 19.151 52.526 18.9375 51.5781 18.9375C50.6094 18.9375 49.7396 19.1667 48.9688 19.625C48.1979 20.0833 47.5885 20.7083 47.1406 21.5C46.6927 22.2812 46.4688 23.1719 46.4688 24.1719C46.4688 25.1719 46.6927 26.0677 47.1406 26.8594C47.5885 27.651 48.1979 28.2812 48.9688 28.75C49.7396 29.2083 50.6094 29.4375 51.5781 29.4375ZM78.3125 30.1406C76.375 31.5885 74.2448 32.3125 71.9219 32.3125C70.2656 32.3125 68.7812 31.9479 67.4688 31.2188C66.1562 30.4896 65.1198 29.4948 64.3594 28.2344C63.599 26.974 63.2188 25.5521 63.2188 23.9688C63.2188 22.4583 63.5677 21.1094 64.2656 19.9219C64.9635 18.724 65.9167 17.7812 67.125 17.0938C68.3333 16.4062 69.7031 16.0625 71.2344 16.0625C72.8177 16.0625 74.2083 16.4375 75.4062 17.1875C76.6146 17.9375 77.5521 18.9844 78.2188 20.3281C78.8958 21.6615 79.2344 23.2083 79.2344 24.9688V25.4688H66.6875C66.875 26.2812 67.2292 26.9948 67.75 27.6094C68.2708 28.2135 68.9167 28.6875 69.6875 29.0312C70.4583 29.3646 71.3281 29.5312 72.2969 29.5312C74.026 29.5312 75.6146 28.9688 77.0625 27.8438L78.3125 30.1406ZM66.5469 23.25H76.25C76.1458 22.375 75.875 21.6146 75.4375 20.9688C75 20.3125 74.4323 19.8021 73.7344 19.4375C73.0469 19.0625 72.2708 18.875 71.4062 18.875C70.5312 18.875 69.7448 19.0625 69.0469 19.4375C68.349 19.8021 67.7812 20.3125 67.3438 20.9688C66.9167 21.625 66.651 22.3854 66.5469 23.25ZM85.7969 32H82.5938V16.375H85.3906L85.5156 19.3438C86.0573 18.3125 86.8021 17.5104 87.75 16.9375C88.7083 16.3542 89.8073 16.0625 91.0469 16.0625C91.349 16.0625 91.651 16.0833 91.9531 16.125C92.2656 16.1562 92.5781 16.2083 92.8906 16.2812L92.4844 19.1719C91.8802 19.0156 91.2865 18.9375 90.7031 18.9375C89.7344 18.9375 88.8802 19.1719 88.1406 19.6406C87.401 20.099 86.8229 20.7344 86.4062 21.5469C86 22.3594 85.7969 23.2969 85.7969 24.3594V32ZM107.844 25.3906H95.3438V22.9062H107.844V25.3906Z" fill="#4338CA"/>
</svg>
