<svg width="254" height="187" viewBox="0 0 254 187" fill="none" xmlns="http://www.w3.org/2000/svg">
<path fill-rule="evenodd" clip-rule="evenodd" d="M95.6661 35.1369C95.5551 35.1105 95.4442 35.0788 95.3386 35.0471C93.912 34.5769 91.9253 33.6945 89.5583 32.7858C83.7412 30.5456 75.7421 28.2102 67.9807 30.7833C62.7659 32.511 57.6251 36.4314 53.3296 44.1505C51.343 47.7327 51.3165 51.69 52.4472 55.5575C54.0481 61.0576 58.0002 66.3622 61.4873 69.9496C62.8874 71.3867 66.1473 73.6957 68.2396 75.4604C10.264 72.6919 -24.9609 146.708 21.782 186.683C22.3368 187.158 23.1715 187.09 23.647 186.54C24.1172 185.985 24.0539 185.151 23.4991 184.675C-21.8172 145.916 13.3284 73.8172 70.0253 78.2184C71.0609 78.2976 71.6263 77.9595 71.8957 77.6794C72.2867 77.2673 72.4664 76.7231 72.2286 76.0203C72.049 75.4973 71.3092 74.6044 70.1733 73.6375C68.1392 71.8992 64.7948 69.5587 63.3788 68.1057C60.1559 64.793 56.4627 59.9058 54.9833 54.8231C54.0534 51.6372 54.0059 48.3773 55.6384 45.4344C59.5165 38.4602 64.1025 34.8516 68.8154 33.2877C75.9428 30.9259 83.2711 33.1978 88.6127 35.2478C91.4605 36.3468 93.7799 37.3929 95.2698 37.7786C96.2684 38.0375 97.0292 38.0005 97.5153 37.7998C97.7636 37.6941 98.255 37.3982 98.3713 36.6374C98.4822 35.8977 98.0859 32.5639 98.0807 32.0038C97.9908 16.687 108.975 6.66416 123.399 3.76881C147.571 -1.08142 161.942 10.5687 163.723 25.2515C165.281 38.0904 157.261 52.9528 138.198 60.8885C137.575 61.0787 136.946 61.269 136.317 61.4539C134.193 62.0826 128.698 63.8261 127.964 64.1537C126.939 64.6081 127.103 65.5749 127.134 65.7176C127.219 66.061 127.43 66.5577 128.159 66.7057C128.228 66.7215 128.593 66.7532 129.28 66.5841C132.825 65.7018 136.101 64.6186 139.112 63.3717C142.388 62.3784 145.648 61.3588 148.971 60.5187C162.608 57.0792 176.667 54.3741 190.769 55.9115C206.857 57.6604 227.436 66.135 239.953 78.7256C246.081 84.8914 250.271 92.0399 250.916 99.8965C251.566 107.748 248.649 116.259 240.745 125.157C240.259 125.701 240.312 126.536 240.856 127.022C241.4 127.508 242.235 127.455 242.721 126.911C251.222 117.337 254.244 108.128 253.547 99.6798C252.855 91.2315 248.417 83.4965 241.823 76.8658C228.9 63.8631 207.665 55.0925 191.054 53.2855C177.121 51.7692 163.237 54.2631 149.743 57.6022C162.507 48.6679 167.69 36.0192 166.343 24.9344C164.415 9.01533 149.082 -4.0771 122.876 1.17996C107.179 4.32891 95.3438 15.3449 95.4389 32.0195C95.4442 32.3471 95.571 34.0009 95.6661 35.1369Z" fill="black"/>
</svg>
