<?xml version="1.0" standalone="no"?>
<!DOCTYPE svg PUBLIC "-//W3C//DTD SVG 20010904//EN"
 "http://www.w3.org/TR/2001/REC-SVG-20010904/DTD/svg10.dtd">
<svg version="1.0" xmlns="http://www.w3.org/2000/svg"
 width="700.000000pt" height="700.000000pt" viewBox="0 0 700.000000 700.000000"
 preserveAspectRatio="xMidYMid meet">
<metadata>
Created by potrace 1.14, written by Peter Selinger 2001-2017
</metadata>
<g transform="translate(0.000000,700.000000) scale(0.100000,-0.100000)"
fill="#000000" stroke="none">
<path d="M1640 6989 c-293 -34 -573 -136 -825 -304 -454 -301 -744 -783 -804
-1337 -15 -134 -15 -3562 0 -3696 36 -334 163 -659 358 -917 306 -407 770
-668 1283 -724 135 -15 3562 -15 3696 0 336 36 658 162 917 358 407 307 668
769 724 1283 15 134 15 3562 0 3696 -62 576 -383 1086 -870 1382 -231 141
-494 229 -771 259 -118 13 -3594 13 -3708 0z m905 -1118 c154 -70 203 -281 96
-412 -52 -62 -116 -89 -239 -99 -60 -5 -136 -16 -169 -24 -236 -61 -445 -245
-538 -473 -56 -139 -55 -113 -55 -1363 0 -1250 -1 -1224 55 -1363 93 -228 302
-412 538 -473 33 -8 109 -19 169 -24 89 -7 117 -14 159 -37 191 -103 183 -377
-14 -472 -85 -41 -329 -22 -522 41 -468 152 -816 554 -899 1037 -14 83 -16
235 -16 1291 0 1316 -2 1274 62 1474 63 199 173 377 326 529 168 167 343 272
561 337 172 51 409 66 486 31z m2241 4 c274 -47 524 -177 719 -374 203 -206
321 -433 370 -715 23 -133 23 -2439 0 -2572 -97 -558 -530 -993 -1084 -1088
-132 -22 -284 -21 -336 3 -155 72 -204 281 -96 412 52 62 116 89 239 99 60 5
137 16 171 25 233 60 434 236 531 463 62 146 60 109 60 1372 0 1250 1 1224
-55 1363 -75 184 -237 352 -418 432 -82 36 -167 55 -289 65 -123 10 -187 37
-239 99 -108 131 -59 340 96 412 51 24 204 25 331 4z m-1976 -1332 c22 -10
153 -133 363 -341 l327 -327 328 327 c233 233 338 331 367 343 22 9 68 17 103
17 183 1 304 -168 251 -352 -11 -40 -53 -85 -343 -378 l-330 -332 326 -328
c230 -231 331 -339 343 -367 9 -22 17 -67 18 -100 2 -150 -118 -270 -267 -268
-33 1 -79 9 -101 18 -28 12 -136 113 -367 343 l-328 327 -327 -327 c-232 -230
-340 -331 -368 -343 -22 -9 -67 -17 -100 -18 -150 -2 -270 118 -268 267 1 33
9 79 18 101 12 28 113 136 343 368 l327 327 -327 328 c-233 233 -331 338 -343
367 -21 52 -22 149 -1 200 59 141 214 205 356 148z"/>
</g>
</svg>
